<svg xmlns="http://www.w3.org/2000/svg" width="77.075" height="45.377" viewBox="0 0 77.075 45.377">
  <g id="Grupo_67539" data-name="Grupo 67539" opacity="0.4">
    <g id="Grupo_67540" data-name="Grupo 67540" transform="translate(0 0)">
      <path id="Caminho_60617" data-name="Caminho 60617" d="M318.749,13.452a7.467,7.467,0,0,0-2.394-5.1,7.582,7.582,0,0,0-3.924-1.91,9.982,9.982,0,0,0-1.847-5.021l-.494-.687-.832.152a26.315,26.315,0,0,1-4.247.426A29.177,29.177,0,0,1,299.175.7c-1.3-.228-2.64-.464-4.093-.586-4.417-.372-8.121.215-11.009,1.742a10.022,10.022,0,0,0-5.31,6.595c-.026.107-.05.217-.073.328-3.952.151-6.871,1.327-8.677,3.5a3.692,3.692,0,0,0-.96,2.749,5.065,5.065,0,0,0,1.181,2.711,6.044,6.044,0,0,0,7.273,1.45c.235-.118.464-.242.691-.363.26-.14.509-.273.755-.394a9.629,9.629,0,0,0,5.081,6.254c2.723,1.361,5.318,1.861,9.917,1.91l2.27.024-1.079-2c-2.711-5.011-4.771-8.372-8.549-9.392-3.308-.892-6.389-.381-10.634,1.765a3.2,3.2,0,0,1-2.871-.115,3.15,3.15,0,0,1-1.3-1.85,1.291,1.291,0,0,1,.288-1.053c1.659-2.077,5.513-2.751,8.6-2.5h0q1.652.339,3.3.687h0a18.779,18.779,0,0,1,6.793,4.3,17.384,17.384,0,0,0,8.887,5.016,17.341,17.341,0,0,0,10.224-.843l2.921-1.171-6.408-2.88c.387-.112.772-.231,1.152-.347l.191-.059a27.4,27.4,0,0,1,4.071-1.02,31.318,31.318,0,0,1,5.553-.3l1.461.051Zm-19.275-4.1A7.858,7.858,0,0,0,302.31,8.4a12.12,12.12,0,0,0,1.7,1.7c.153.127.308.25.462.368a7.36,7.36,0,0,1-4.795,1.9l-.036,0c-.018-.166-.034-.346-.05-.544-.071-.905-.1-1.79-.12-2.492m6.1-1.207a9.374,9.374,0,0,1-1.351-1.367,11.057,11.057,0,0,0,.888-1.371l0,.008a4.534,4.534,0,0,1,.459,2.73m-3.76-2.385-.006.006a5.48,5.48,0,0,1-3.232,1.133c-.108,0-.219,0-.33-.011A7.4,7.4,0,0,1,294.7,5.519l1.544-2.585c.8.127,1.512.26,2.211.39a32.992,32.992,0,0,0,4.582.627,8.451,8.451,0,0,1-1.224,1.8M289.6,10.336a9.4,9.4,0,0,1,3.548-2.745,16.743,16.743,0,0,0,3.814,1.625c.027,1.157.067,2.007.132,2.82.008.1.016.2.025.3a11.3,11.3,0,0,1-1.556-.311l-.055-.015c-1.854-.452-3.86-.916-6.127-1.419q.108-.132.219-.259m2.34-4.982-.054.033a22.79,22.79,0,0,0-2.54,1.734A17.379,17.379,0,0,1,287.088,5.8a4.557,4.557,0,0,1-1.2-1.117l0-.006c-.067-.208-.128-.423-.18-.639a29.551,29.551,0,0,1,7.628-1.258c-.481.839-1.032,1.871-1.4,2.577m2.907,9.249.847.27c.36.118,5.558,2.387,9.7,4.207a14.745,14.745,0,0,1-12.7-4.479l-.072-.075q-.327-.31-.665-.61c.991.229,1.945.456,2.9.687m12.536-3.615a7.206,7.206,0,0,0,.105-6.8c-.057-.11-.117-.22-.181-.329.515-.05,1.033-.113,1.544-.19a7.323,7.323,0,0,1-6.364,10.916,7.552,7.552,0,0,0,4.9-3.595M287.466,8.97c-.271.328-.532.676-.778,1.037q-1.007-.217-2.014-.429h0c-.408-.133-.825-.252-1.239-.353a16.509,16.509,0,0,0-2.016-.36,6.969,6.969,0,0,1,2.117-3.414,5.123,5.123,0,0,0,2.1,2.393,17.092,17.092,0,0,0,1.834,1.127m28.316,3.2a33.906,33.906,0,0,0-4.353.344c-.168.024-.337.05-.506.077.064-.1.126-.2.186-.306a9.927,9.927,0,0,0,1.178-3.15,4.827,4.827,0,0,1,3.5,3.035m-34.311,5.312a7.879,7.879,0,0,1,5.676.972,10.622,10.622,0,0,1,3.637,4.118c.232.376.489.792.787,1.263a12.544,12.544,0,0,1-6.3-1.748,7,7,0,0,1-3.795-4.606" transform="translate(-251.542 -0.001)"/>
      <path id="Caminho_60618" data-name="Caminho 60618" d="M10.6,385.529h8.179v19.742H12.3v-4.935h-4.2L6.74,405.271H0l4.287-14.214c1.3-4.315,2.707-5.528,6.317-5.528M12.3,395.541v-5.189h-.31c-.987,0-1.185.226-1.636,1.861l-.931,3.328Z" transform="translate(0 -360.458)"/>
      <path id="Caminho_60619" data-name="Caminho 60619" d="M318.083,448.362a6.364,6.364,0,0,0,3.243-.818v15.709H314.84V447.544a6.439,6.439,0,0,0,3.243.818" transform="translate(-294.366 -418.44)"/>
      <path id="Caminho_60620" data-name="Caminho 60620" d="M958.827,372.883c0-2.228,1.3-4.428,6.825-5.246l1.41-.2a2.95,2.95,0,0,0-2.764-1.185,4.753,4.753,0,0,0-4.061,2v-6.881a17.154,17.154,0,0,1,4.6-.564c5.753,0,8.714,2.341,8.714,7.107v9.166a7.416,7.416,0,0,0-3.356-.987c-2.059,0-3.384,1.354-6.176,1.354-3.3,0-5.189-1.861-5.189-4.569m6.346-17.711h6.2c-.254,2.566-2.707,4.766-7.051,4.794a14.2,14.2,0,0,0,.846-4.794m2.171,16.526v-1.3l-.62.113c-1.495.282-2.087.846-2.087,1.664a1.155,1.155,0,0,0,1.269,1.213c.733,0,1.438-.423,1.438-1.692" transform="translate(-896.473 -332.075)"/>
      <path id="Caminho_60621" data-name="Caminho 60621" d="M443.825,451.578v8.078a1.345,1.345,0,0,1-1.467,1.495c-1.1,0-1.72-1.072-1.72-2.989a15.037,15.037,0,0,1,1.787-6.6,26.1,26.1,0,0,1-6.444-.952,19.094,19.094,0,0,0-1.885,7.774c0,5.443,2.764,8.291,8.038,8.291,4.992,0,8.179-2.679,8.179-6.853V450.6a33.27,33.27,0,0,1-6.486.973" transform="translate(-405.865 -421.302)"/>
      <path id="Caminho_60622" data-name="Caminho 60622" d="M314.218,346.017a3.319,3.319,0,1,1,3.3,3.13,3.067,3.067,0,0,1-3.3-3.13" transform="translate(-293.784 -320.589)"/>
      <path id="Caminho_60623" data-name="Caminho 60623" d="M717.3,396.36l3.625-5.691-6.8-.119-2.973,5.5.17-9.71c-.188.214-1.006.72-4.564.931-2.065.123-2,3.932-2,3.932l0-.014-.256,14.7,6.486.113.141-8.065,2.707,8.114,7.247.126Z" transform="translate(-658.683 -361.221)"/>
      <path id="Caminho_60640" data-name="Caminho 60640" d="M338.266,203.49a.827.827,0,1,0,1.146.481.883.883,0,0,0-1.146-.481" transform="translate(-315.649 -190.205)"/>
    </g>
  </g>
</svg>
