<svg id="DentalUni-logo" xmlns="http://www.w3.org/2000/svg" width="125.687" height="20.022" viewBox="0 0 125.687 20.022">
  <path id="Caminho_60607" data-name="Caminho 60607" d="M101.343,13.542V5.207h1.985v6.775h6.333v1.56Zm-8.9-3.353,1.821-3.472,1.883,3.472ZM88.62,13.542h1.965l1.019-1.83h5.343l1.019,1.83h2.211L95.309,5.207h-1.9ZM87.482,6.7v6.845H85.517V6.7h-3.9V5.207h9.776V6.7Zm-17.03,6.845V5.207H71.8l6.853,5.531V5.207h1.781v8.335H79.078L72.241,7.922v5.621Zm-9.841,0V5.207h8.662V6.681H62.6V8.5h3.889V9.936H62.6v2.051h6.779v1.56H60.611Zm-13.157,0V3.369H53.8A6.045,6.045,0,0,1,57.97,4.675a4.715,4.715,0,0,1,1.457,3.717,5.681,5.681,0,0,1-.569,2.567,4.389,4.389,0,0,1-1.6,1.8,4.551,4.551,0,0,1-1.6.6,13.251,13.251,0,0,1-2.448.188H47.453Zm2.3-1.916h2.968a5.636,5.636,0,0,0,3.353-.757,2.986,2.986,0,0,0,.991-2.514,3.157,3.157,0,0,0-.823-2.362,3.352,3.352,0,0,0-2.428-.806H49.746v6.44Z" transform="translate(-17.761 -1.261)" fill="#999" fill-rule="evenodd"/>
  <path id="Caminho_60608" data-name="Caminho 60608" d="M151.042,3.369v8.257h6.534V3.369h2.284v7.77a2.7,2.7,0,0,1-.5,1.9,2.776,2.776,0,0,1-1.941.508H151.19a2.756,2.756,0,0,1-1.937-.508,2.688,2.688,0,0,1-.507-1.9V3.369Z" transform="translate(-55.674 -1.261)" fill="#999" fill-rule="evenodd"/>
  <path id="Caminho_60609" data-name="Caminho 60609" d="M170.27,13.542V3.369h1.568l6.943,6c.233.2.442.389.623.565a6.822,6.822,0,0,1,.495.54c-.036-.573-.061-.974-.073-1.212s-.021-.422-.021-.549V3.369h2.059V13.542H180.3l-7.238-6.284c-.176-.16-.328-.307-.459-.434s-.25-.262-.364-.393c.028.311.053.61.069.888s.021.52.021.729v5.494H170.27Z" transform="translate(-63.729 -1.261)" fill="#999" fill-rule="evenodd"/>
  <path id="Caminho_60610" data-name="Caminho 60610" d="M194.859,3.369h-2.3V13.542h2.3Z" transform="translate(-72.074 -1.261)" fill="#999"/>
  <path id="Caminho_60611" data-name="Caminho 60611" d="M23.349,18.5c-2.452.937-3.844,1.76-6.661,2.141a4.353,4.353,0,0,1-4.421-1.5c.749,2.911,1.683,4.56,4.708,5.22a5.778,5.778,0,0,0,2.845-.147l8.429-3.611c-1.425-2.411-3.381-2.686-4.9-2.108Z" transform="translate(-4.592 -6.828)" fill="#999" fill-rule="evenodd"/>
  <path id="Caminho_60612" data-name="Caminho 60612" d="M20.851,1.151,7.57,1.106c.328,2.784,2.3,5.22,5.465,4.642,8.888-1.609,9.436-.34,10.627.475C23.319,4.311,22.938,2.412,20.851,1.151Z" transform="translate(-2.834 -0.414)" fill="#999" fill-rule="evenodd"/>
  <path id="Caminho_60613" data-name="Caminho 60613" d="M47.772,24.736v.872a.515.515,0,0,0,.016.111h-.413a.515.515,0,0,0,.016-.111V23.545a.345.345,0,0,0-.016-.111H48.1a.917.917,0,0,1,.454.106.563.563,0,0,1,.283.524.591.591,0,0,1-.348.569,1.09,1.09,0,0,1-.483.1h-.237Zm0-.176h.2a.515.515,0,0,0,.27-.061.407.407,0,0,0,.156-.176.565.565,0,0,0,.057-.258.478.478,0,0,0-.119-.344.422.422,0,0,0-.328-.123h-.237v.958Zm2.559,1.159H49.172a.479.479,0,0,0,.016-.106V23.549a.345.345,0,0,0-.016-.111h.409a.515.515,0,0,0-.016.111v1.985h.647a.353.353,0,0,0,.115-.016v.2ZM50.957,25l-.221.618a.182.182,0,0,0-.012.094h-.217a.412.412,0,0,0,.049-.094l.749-2.1a.319.319,0,0,0,.016-.086h.332a.239.239,0,0,0,.016.074l.77,2.112a.7.7,0,0,0,.053.094h-.446a.348.348,0,0,0-.016-.094L51.813,25h-.852Zm.057-.164h.729l-.368-1.032Zm1.924-.982v1.752a.346.346,0,0,0,.016.111h-.2a.515.515,0,0,0,.016-.111V23.545a.345.345,0,0,0-.016-.111h.364a.233.233,0,0,0,.041.078L54.4,25.256V23.545a.345.345,0,0,0-.016-.111h.2a.515.515,0,0,0-.016.111v2.071a.282.282,0,0,0,.016.1h-.332a.46.46,0,0,0-.049-.086l-1.269-1.777Zm3.185-.45a1.127,1.127,0,0,1,.8.278,1.169,1.169,0,0,1,.323.9,1.19,1.19,0,0,1-.311.884,1.112,1.112,0,0,1-.819.291,1.047,1.047,0,0,1-.831-.311A1.267,1.267,0,0,1,55,24.56a1.334,1.334,0,0,1,.139-.626,1.018,1.018,0,0,1,.987-.528Zm0,.176a.6.6,0,0,0-.557.287,1.3,1.3,0,0,0-.164.7c0,.675.242,1.015.721,1.015a.6.6,0,0,0,.544-.287.935.935,0,0,0,.127-.3,1.891,1.891,0,0,0,.041-.405c0-.663-.237-.995-.716-1Zm1.384,1.994.078-.27a1.223,1.223,0,0,0,.151.119.669.669,0,0,0,.389.127.437.437,0,0,0,.332-.123.386.386,0,0,0-.045-.573,2.777,2.777,0,0,0-.344-.184,1.218,1.218,0,0,1-.4-.27.558.558,0,0,1-.139-.368.614.614,0,0,1,.1-.34.743.743,0,0,1,.655-.291,1.266,1.266,0,0,1,.532.123l-.074.242a.9.9,0,0,0-.483-.184.4.4,0,0,0-.287.111.322.322,0,0,0-.094.229.306.306,0,0,0,.094.225,1.682,1.682,0,0,0,.381.221,1.193,1.193,0,0,1,.426.282.611.611,0,0,1,.139.405.658.658,0,0,1-.1.36.747.747,0,0,1-.684.336,1.119,1.119,0,0,1-.311-.041,1.376,1.376,0,0,1-.319-.139Zm4.675-2.17a1.127,1.127,0,0,1,.8.278,1.169,1.169,0,0,1,.323.9,1.191,1.191,0,0,1-.311.884,1.112,1.112,0,0,1-.819.291,1.047,1.047,0,0,1-.831-.311,1.267,1.267,0,0,1-.287-.884,1.383,1.383,0,0,1,.135-.626A1.018,1.018,0,0,1,62.186,23.405Zm0,.176a.6.6,0,0,0-.557.287,1.3,1.3,0,0,0-.164.7c0,.675.242,1.015.721,1.015a.6.6,0,0,0,.544-.287.935.935,0,0,0,.127-.3,1.891,1.891,0,0,0,.041-.405c0-.663-.237-.995-.716-1Zm1.535-.147h.7a1.283,1.283,0,0,1,.663.16.9.9,0,0,1,.373.4,1.244,1.244,0,0,1,.127.569,1.175,1.175,0,0,1-.254.782,1,1,0,0,1-.815.377h-.8a.515.515,0,0,0,.016-.111V23.545a.345.345,0,0,0-.016-.111Zm.393,2.088h.311a.669.669,0,0,0,.487-.18.765.765,0,0,0,.184-.295,1.547,1.547,0,0,0,.082-.491.913.913,0,0,0-.336-.782.772.772,0,0,0-.479-.147h-.25ZM67.025,23.4a1.128,1.128,0,0,1,.8.278,1.169,1.169,0,0,1,.323.9,1.191,1.191,0,0,1-.311.884,1.112,1.112,0,0,1-.819.291,1.047,1.047,0,0,1-.831-.311,1.267,1.267,0,0,1-.287-.884,1.335,1.335,0,0,1,.139-.626,1.018,1.018,0,0,1,.987-.528Zm0,.18a.6.6,0,0,0-.557.287,1.3,1.3,0,0,0-.164.7c0,.675.242,1.015.721,1.015a.609.609,0,0,0,.549-.287.936.936,0,0,0,.127-.3,1.891,1.891,0,0,0,.041-.405C67.746,23.921,67.508,23.59,67.029,23.581Zm1.715.274v1.752a.345.345,0,0,0,.016.111h-.2a.518.518,0,0,0,.016-.111V23.545a.345.345,0,0,0-.016-.111h.364a.233.233,0,0,0,.041.078l1.249,1.744V23.545a.345.345,0,0,0-.016-.111h.2a.519.519,0,0,0-.016.111v2.071a.283.283,0,0,0,.016.1h-.332a.46.46,0,0,0-.049-.086l-1.269-1.777Zm1.85-.422h1.658v.209c-.049-.008-.094-.012-.143-.016h-.5v1.981a.344.344,0,0,0,.016.111h-.409a.346.346,0,0,0,.016-.111V23.627h-.5a.548.548,0,0,0-.143.016v-.209ZM73.42,23.4a1.128,1.128,0,0,1,.8.278,1.169,1.169,0,0,1,.323.9,1.191,1.191,0,0,1-.311.884,1.1,1.1,0,0,1-.823.291,1.047,1.047,0,0,1-.831-.311,1.266,1.266,0,0,1-.287-.884,1.335,1.335,0,0,1,.139-.626A1.018,1.018,0,0,1,73.42,23.4Zm0,.18a.6.6,0,0,0-.557.287,1.3,1.3,0,0,0-.164.7c0,.675.242,1.015.72,1.015a.6.6,0,0,0,.544-.287.933.933,0,0,0,.127-.3,1.891,1.891,0,0,0,.041-.405c0-.663-.237-.995-.716-1Zm2.694,2.137H74.959a.479.479,0,0,0,.016-.106V23.549a.344.344,0,0,0-.016-.111h.409a.515.515,0,0,0-.016.111v1.985H76a.353.353,0,0,0,.115-.016v.2ZM77.325,23.4a1.128,1.128,0,0,1,.8.278,1.169,1.169,0,0,1,.323.9,1.191,1.191,0,0,1-.311.884,1.112,1.112,0,0,1-.819.291,1.047,1.047,0,0,1-.831-.311,1.266,1.266,0,0,1-.287-.884,1.335,1.335,0,0,1,.139-.626,1.018,1.018,0,0,1,.987-.528Zm0,.18a.6.6,0,0,0-.557.287,1.3,1.3,0,0,0-.164.7c0,.675.242,1.015.72,1.015a.6.6,0,0,0,.544-.287.935.935,0,0,0,.127-.3,1.891,1.891,0,0,0,.041-.405c0-.663-.237-.995-.716-1Zm-.2-.278.233-.528h.3l-.36.528Zm3.435.221v.283a1.1,1.1,0,0,0-.622-.213.7.7,0,0,0-.54.229.787.787,0,0,0-.176.311,1.555,1.555,0,0,0-.057.454,1.118,1.118,0,0,0,.229.766.649.649,0,0,0,.508.213.672.672,0,0,0,.352-.1v-.892a.341.341,0,0,0-.012-.111h.4a.512.512,0,0,0-.012.111v.88a.562.562,0,0,0,.02.139c-.147.049-.295.094-.45.131a1.874,1.874,0,0,1-.34.029,1.2,1.2,0,0,1-.581-.127.952.952,0,0,1-.405-.446,1.412,1.412,0,0,1-.119-.594,1.084,1.084,0,0,1,.983-1.179,1.331,1.331,0,0,1,.18,0,1.806,1.806,0,0,1,.639.123Zm.569-.09h.409a.519.519,0,0,0-.016.111v2.063a.339.339,0,0,0,.016.111h-.409a.518.518,0,0,0,.016-.111V23.545A.356.356,0,0,0,81.133,23.434Zm2.546.066v.307a1.044,1.044,0,0,0-.27-.172.773.773,0,0,0-.274-.049.648.648,0,0,0-.569.287,1.233,1.233,0,0,0-.188.7,1.136,1.136,0,0,0,.213.721.665.665,0,0,0,.553.266.68.68,0,0,0,.27-.053,1.089,1.089,0,0,0,.262-.188v.3a1.538,1.538,0,0,1-.29.106,1.247,1.247,0,0,1-.3.029,1.077,1.077,0,0,1-.811-.291,1.243,1.243,0,0,1-.3-.9,1.323,1.323,0,0,1,.123-.61,1.064,1.064,0,0,1,1.044-.549,1.518,1.518,0,0,1,.54.1Zm1.314-.1a1.129,1.129,0,0,1,.8.278,1.168,1.168,0,0,1,.323.9,1.191,1.191,0,0,1-.311.884,1.1,1.1,0,0,1-.823.291,1.047,1.047,0,0,1-.831-.311,1.266,1.266,0,0,1-.287-.884,1.331,1.331,0,0,1,.139-.626A1.018,1.018,0,0,1,84.993,23.4Zm0,.176a.6.6,0,0,0-.557.287,1.3,1.3,0,0,0-.163.7c0,.675.242,1.015.72,1.015a.6.6,0,0,0,.544-.287.921.921,0,0,0,.127-.3,1.883,1.883,0,0,0,.041-.405c0-.663-.238-.995-.716-1Zm1.388,2,.078-.27a1.235,1.235,0,0,0,.152.119.668.668,0,0,0,.389.127.437.437,0,0,0,.332-.123.386.386,0,0,0-.045-.573,2.817,2.817,0,0,0-.344-.184,1.219,1.219,0,0,1-.4-.27.557.557,0,0,1-.139-.368.617.617,0,0,1,.1-.34.744.744,0,0,1,.655-.291,1.266,1.266,0,0,1,.532.123l-.074.242a.9.9,0,0,0-.483-.184.4.4,0,0,0-.287.111.322.322,0,0,0-.094.229.306.306,0,0,0,.094.225,1.69,1.69,0,0,0,.38.221,1.191,1.191,0,0,1,.426.282.61.61,0,0,1,.139.405.659.659,0,0,1-.1.36.748.748,0,0,1-.684.336,1.118,1.118,0,0,1-.311-.041,1.544,1.544,0,0,1-.319-.135Z" transform="translate(-17.732 -8.524)" fill="#999" fill-rule="evenodd"/>
  <path id="Caminho_60614" data-name="Caminho 60614" d="M198.625,0a1.026,1.026,0,0,1,.5.131.963.963,0,0,1,.38.377,1.023,1.023,0,0,1,0,1.028,1.017,1.017,0,0,1-.377.381,1.029,1.029,0,0,1-1.019,0,.966.966,0,0,1-.377-.381,1.047,1.047,0,0,1,0-1.028.941.941,0,0,1,.381-.377,1.038,1.038,0,0,1,.5-.131Zm0,.2a.823.823,0,0,0-.405.106.811.811,0,0,0-.307.3.82.82,0,0,0,0,.823.768.768,0,0,0,.3.3.813.813,0,0,0,.818,0,.774.774,0,0,0,.3-.3.823.823,0,0,0,0-.823.759.759,0,0,0-.307-.3A.821.821,0,0,0,198.625.2Zm-.467,1.367h.222v-.45h.057a.253.253,0,0,1,.151.045.692.692,0,0,1,.151.225l.09.176h.275l-.127-.221a1.212,1.212,0,0,0-.082-.131.463.463,0,0,0-.074-.082.278.278,0,0,0-.078-.041.36.36,0,0,0,.217-.1.3.3,0,0,0,.078-.2A.31.31,0,0,0,199,.635a.25.25,0,0,0-.1-.1.487.487,0,0,0-.172-.045h-.569V1.572Zm.222-.618h.09a1.156,1.156,0,0,0,.237-.016.148.148,0,0,0,.074-.049.153.153,0,0,0,.029-.082.144.144,0,0,0-.025-.082.146.146,0,0,0-.073-.049,1.145,1.145,0,0,0-.238-.016h-.09V.954Z" transform="translate(-73.961 0)" fill="#999" fill-rule="evenodd"/>
  <path id="Caminho_60615" data-name="Caminho 60615" d="M1.089,7.144c4.786,0,5.768,3.955,6.525,7.61.757,3.058,1.662,4.786,4.769,5.461a5.779,5.779,0,0,0,2.845-.147c-2.346.946-4.843,2.37-6.435,2.559a5.49,5.49,0,0,1-.86.07A5.971,5.971,0,0,1,2.26,18.181c-.729-2.485-.565-6.8-2.031-10.41C.078,7.439,0,7.247,0,7.247A7.481,7.481,0,0,1,1.089,7.144Z" transform="translate(0 -2.674)" fill="#999" fill-rule="evenodd"/>
  <path id="Caminho_60616" data-name="Caminho 60616" d="M28.795,1.178c.983.033,2.026,0,3.05.131,2.5.311,2.841,2.342,3.238,4.958a25.672,25.672,0,0,0,1.056,5.048,3.727,3.727,0,0,1-3.758-2.1C31.186,6.536,32,3.11,28.795,1.178Z" transform="translate(-10.778 -0.441)" fill="#999" fill-rule="evenodd"/>
</svg>
