<svg xmlns="http://www.w3.org/2000/svg" width="131.984" height="25.01" viewBox="0 0 131.984 25.01">
  <g id="Grupo_30364" data-name="Grupo 30364" opacity="0.4">
    <path id="Caminho_21595" data-name="Caminho 21595" d="M299.723,60.252c0-.02,0-.039,0-.059v-.539h-1.869a.578.578,0,0,0-.6.6v7.2a4,4,0,0,1-.961,2.845,3.388,3.388,0,0,1-2.6,1.026q-3.378,0-3.378-3.871v-7.2a.578.578,0,0,0-.6-.6h-1.9v7.924a6.359,6.359,0,0,0,1.351,4.248,4.726,4.726,0,0,0,3.819,1.6,5.845,5.845,0,0,0,2.572-.507,4.781,4.781,0,0,0,1.767-1.494v1.143a.578.578,0,0,0,.6.6h1.791v-.539c0-.019,0-.039,0-.059Z" transform="translate(-248.701 -51.546)"/>
    <path id="Caminho_21596" data-name="Caminho 21596" d="M198.664,25.247h-10.6a.581.581,0,0,0-.429.169.614.614,0,0,0-.169.455V43.434h1.9a.626.626,0,0,0,.442-.169.56.56,0,0,0,.182-.429V35.822h8.158a.625.625,0,0,0,.442-.169.56.56,0,0,0,.182-.429V34.185c0-.022,0-.043,0-.064v-.555h-.536c-.028,0-.056,0-.086,0h-8.158V27.507h8.678a.614.614,0,0,0,.455-.169.581.581,0,0,0,.169-.429V25.247Z" transform="translate(-161.985 -21.815)"/>
    <path id="Caminho_21597" data-name="Caminho 21597" d="M405.182,59.654h-1.013a3.9,3.9,0,0,0-3.637,1.767V60.278a.621.621,0,0,0-.623-.624h-1.793v13.51h1.871a.626.626,0,0,0,.442-.169.56.56,0,0,0,.182-.429V64.928a3.029,3.029,0,0,1,.805-2.222,2.957,2.957,0,0,1,2.208-.818h1.559a.608.608,0,0,0,.429-.156.539.539,0,0,0,.169-.416V59.654Z" transform="translate(-344.002 -51.546)"/>
    <path id="Caminho_21598" data-name="Caminho 21598" d="M789.811,62.624a4.339,4.339,0,0,0-.688-2.543,4.945,4.945,0,0,0-1.936-1.663,6.809,6.809,0,0,0-3.17-.676,5.881,5.881,0,0,0-4.352,1.572,6.3,6.3,0,0,0-1.676,4.4l-.026,1.039.026,1.039a6.3,6.3,0,0,0,1.676,4.4,5.88,5.88,0,0,0,4.352,1.572A6.79,6.79,0,0,0,787.2,71.1a4.912,4.912,0,0,0,1.923-1.676,4.142,4.142,0,0,0,.689-1.962,4.818,4.818,0,0,0,0-.6h-1.848a.567.567,0,0,0-.39.117,1.22,1.22,0,0,0-.26.429,3.4,3.4,0,0,1-1.247,1.78,3.6,3.6,0,0,1-2.027.533,3.372,3.372,0,0,1-2.572-.987,4.592,4.592,0,0,1-1.013-3.066l-.026-.883.026-.935a4.561,4.561,0,0,1,1.026-3.053,3.359,3.359,0,0,1,2.559-1,3.6,3.6,0,0,1,2.027.533,3.4,3.4,0,0,1,1.247,1.78,1.065,1.065,0,0,0,.26.416.614.614,0,0,0,.39.1h1.247l.069,0h.532" transform="translate(-672.221 -49.894)"/>
    <path id="Caminho_21599" data-name="Caminho 21599" d="M482.573,40.769,475.921,34.3l6-4.989a.593.593,0,0,0,.312-.494.533.533,0,0,0-.546-.546h-1.906l-.988.84-4.64,3.863V23.933a.578.578,0,0,0-.6-.6h-1.819V41.791h1.191v-.009h.627a.578.578,0,0,0,.6-.6V35.806l4.65,4.441-.007,0,.295.277.857.819q.1.09.183.16l.3.282h1.908a.533.533,0,0,0,.546-.546q0-.208-.312-.468" transform="translate(-407.618 -20.163)"/>
    <path id="Caminho_21600" data-name="Caminho 21600" d="M566.017,136.665a.627.627,0,0,0-.442-.169H563.7a.578.578,0,0,0-.6.6v1.871a.578.578,0,0,0,.6.6H566.2v-2.468a.561.561,0,0,0-.182-.429" transform="translate(-486.568 -117.943)"/>
    <path id="Caminho_21601" data-name="Caminho 21601" d="M598.211,25.228H586.089v0h-1v1.718a.578.578,0,0,0,.6.6h4.987V43.415h1.95a.625.625,0,0,0,.442-.169.56.56,0,0,0,.182-.429V27.54h4.963a.625.625,0,0,0,.442-.169.561.561,0,0,0,.182-.429V25.228Z" transform="translate(-505.563 -21.796)"/>
    <path id="Caminho_21602" data-name="Caminho 21602" d="M687.755,65.563h.6v-.884h0v-.155a7.307,7.307,0,0,0-1.585-4.95,6.281,6.281,0,0,0-8.691-.169,6.851,6.851,0,0,0-1.78,4.469l-.026.857.026.883a6.763,6.763,0,0,0,1.754,4.508,5.675,5.675,0,0,0,4.274,1.65,7.057,7.057,0,0,0,2.949-.585,5.88,5.88,0,0,0,2-1.39,2.287,2.287,0,0,0,.695-1.37c.023-.262.02-.491.019-.5H686.17a.978.978,0,0,0-.429.065,1.517,1.517,0,0,0-.351.377,3.852,3.852,0,0,1-1.13,1,3.635,3.635,0,0,1-1.961.481,3.054,3.054,0,0,1-2.507-1.182,4.811,4.811,0,0,1-1.026-2.871v-.234Zm-8.99-1.871a4.392,4.392,0,0,1,.948-2.923,3.2,3.2,0,0,1,2.585-1.13,3.274,3.274,0,0,1,2.611,1.13,4.319,4.319,0,0,1,.974,2.923v.078h-7.119Z" transform="translate(-584.35 -49.894)"/>
    <path id="Caminho_21603" data-name="Caminho 21603" d="M892.994,29.61a4.875,4.875,0,0,0-3.884-1.6,5.607,5.607,0,0,0-2.52.507,5.18,5.18,0,0,0-1.767,1.468V23.933a.578.578,0,0,0-.6-.6h-1.9V41.782h1.9a.578.578,0,0,0,.6-.6v-7.2a3.967,3.967,0,0,1,.974-2.845,3.431,3.431,0,0,1,2.611-1.026,3.269,3.269,0,0,1,2.585,1.013,4.025,4.025,0,0,1,.892,2.616v8.036h1.9a.578.578,0,0,0,.6-.6V33.858a6.244,6.244,0,0,0-1.39-4.248" transform="translate(-762.4 -20.163)"/>
    <path id="Caminho_21604" data-name="Caminho 21604" d="M27.056,0a5.007,5.007,0,0,0-5,5V6h10.5a5.007,5.007,0,0,0,5-5V0ZM32.6,5H23.1a4,4,0,0,1,4-4h9.5a4,4,0,0,1-4,4" transform="translate(-19.057 0)"/>
    <path id="Caminho_21605" data-name="Caminho 21605" d="M19.547,10.4a5.881,5.881,0,0,1-5.69,5.731H3.253v0a3.355,3.355,0,0,0-1.178.259l-.01,0q-.119.05-.234.11l-.014.007a3.39,3.39,0,0,0-.646.439l-.017.014q-.093.082-.18.169l-.018.018c-.058.06-.115.122-.169.186l0,0c-.054.065-.106.132-.155.2l-.01.013c-.047.066-.091.135-.133.2l-.019.031q-.061.1-.114.211l-.015.032c-.036.074-.07.15-.1.227l0,.007c-.03.076-.057.154-.081.233l-.01.031c-.023.077-.043.156-.061.235l-.01.045c-.016.079-.03.16-.041.241,0,.013,0,.026,0,.039-.01.086-.019.172-.023.26,0,.05,0,.1,0,.15H0l0,9.111a5.881,5.881,0,0,1,5.69-5.731H16.3v0a3.355,3.355,0,0,0,1.178-.26l.01,0q.119-.05.234-.11l.014-.007a3.383,3.383,0,0,0,.646-.439l.017-.014q.093-.082.18-.17l.018-.018c.058-.06.115-.122.169-.186l0,0c.054-.065.106-.132.155-.2l.01-.013c.047-.066.091-.135.133-.2l.019-.031q.061-.1.114-.21l.015-.032c.036-.074.07-.15.1-.227l0-.007c.03-.076.057-.154.081-.233l.01-.031c.023-.077.043-.156.061-.235l.01-.044c.016-.08.03-.16.041-.241,0-.013,0-.026,0-.039.01-.086.019-.172.023-.26,0-.05,0-.1,0-.15h0Z" transform="translate(0 -8.982)"/>
    <path id="Caminho_21606" data-name="Caminho 21606" d="M12.793,115.711a11.286,11.286,0,0,1,1.135-4.948,4.979,4.979,0,1,0,0,9.9,11.285,11.285,0,0,1-1.135-4.948" transform="translate(-7.252 -95.681)"/>
  </g>
</svg>
