<svg xmlns="http://www.w3.org/2000/svg" width="142.408" height="28.905" viewBox="0 0 142.408 28.905">
  <g id="Grupo_42" data-name="Grupo 42" opacity="0.4">
    <path id="Caminho_60597" data-name="Caminho 60597" d="M29,5h5.766l6.557,9.975V5h5.766V25.154H41.042l-6.276-9.592v9.592H29Z" transform="translate(-2.804 -1.356)"/>
    <path id="Caminho_60598" data-name="Caminho 60598" d="M50.1,18.558a8.8,8.8,0,0,1,.536-3.138A6.776,6.776,0,0,1,52.168,13a6.51,6.51,0,0,1,2.373-1.556,9.015,9.015,0,0,1,6.123,0A6.519,6.519,0,0,1,63.011,13a7.252,7.252,0,0,1,1.531,2.424,8.8,8.8,0,0,1,.536,3.138,8.8,8.8,0,0,1-.536,3.138,6.776,6.776,0,0,1-1.531,2.424,6.631,6.631,0,0,1-2.347,1.556,8.287,8.287,0,0,1-3.061.536,8.481,8.481,0,0,1-3.061-.536,6.851,6.851,0,0,1-2.373-1.556A7.252,7.252,0,0,1,50.637,21.7,8.706,8.706,0,0,1,50.1,18.558Zm5.613,0a4.238,4.238,0,0,0,.51,2.245,1.556,1.556,0,0,0,1.378.816A1.535,1.535,0,0,0,58.98,20.8a4.238,4.238,0,0,0,.51-2.245,4.14,4.14,0,0,0-.51-2.22,1.557,1.557,0,0,0-1.378-.816,1.586,1.586,0,0,0-1.378.816A4.264,4.264,0,0,0,55.714,18.558Z" transform="translate(-4.844 -1.927)"/>
    <path id="Caminho_60599" data-name="Caminho 60599" d="M74.173,19.221a1.979,1.979,0,0,0,.485,1.505,2.03,2.03,0,0,0,1.352.51,5.332,5.332,0,0,0,1.607-.281v4.49a9.65,9.65,0,0,1-2.908.434,6.543,6.543,0,0,1-4.541-1.4,5.19,5.19,0,0,1-1.582-4.056V15.726H66.851V11.083h1.735V8.506h5.587v2.577h2.883v4.643H74.173v3.5Z" transform="translate(-6.463 -1.695)"/>
    <path id="Caminho_60600" data-name="Caminho 60600" d="M79.362,11.331h5.587V25.847H79.362Z" transform="translate(-7.673 -1.968)"/>
    <path id="Caminho_60601" data-name="Caminho 60601" d="M86.2,10.667h1.735V9.774A5.118,5.118,0,0,1,88.39,7.58,4.616,4.616,0,0,1,89.666,5.9a5.71,5.71,0,0,1,1.99-1.071,8.488,8.488,0,0,1,2.628-.383,6.805,6.805,0,0,1,2.424.383v4.49a2.811,2.811,0,0,1-.459-.051h-.536a3.882,3.882,0,0,0-1.658.281,1.163,1.163,0,0,0-.536,1.122H96.4V15.31H93.518v9.9H87.931v-9.9H86.2Z" transform="translate(-8.334 -1.302)"/>
    <path id="Caminho_60602" data-name="Caminho 60602" d="M108.4,25.847c-1.046,3.368-3.495,5.026-7.321,5.026s-.817,0-1.3-.051c-.485-.025-.944-.077-1.377-.128V26.1c.332.025.689.077,1.123.1s.791.051,1.1.051c1.25,0,2.015-.255,2.3-.816h-1.1L97.126,11.331h5.945l1.964,8.9,2.246-8.9h5.663l-4.566,14.516Z" transform="translate(-9.391 -1.968)"/>
    <path id="Caminho_60603" data-name="Caminho 60603" d="M115.706,11.285h5.588v2.653a4.116,4.116,0,0,1,4.107-3.087c2.015,0,2.091.332,2.857,1.02a5.333,5.333,0,0,1,1.556,2.908c.612-2.6,2.066-3.9,4.337-3.9s2.628.536,3.418,1.633a7.622,7.622,0,0,1,1.2,4.643v8.674h-5.587V17.969c0-1.709-.537-2.551-1.582-2.551s-1.583.867-1.583,2.551v7.858h-5.587V17.969c0-1.709-.536-2.551-1.582-2.551s-1.582.867-1.582,2.551v7.858h-5.587V11.31Z" transform="translate(-11.185 -1.921)"/>
    <path id="Caminho_60604" data-name="Caminho 60604" d="M149.226,10.851a8.243,8.243,0,0,1,2.832.459,6.506,6.506,0,0,1,2.194,1.3,5.721,5.721,0,0,1,1.4,2.041,6.742,6.742,0,0,1,.485,2.653,7.562,7.562,0,0,1-.077,1.378,12.283,12.283,0,0,1-.229,1.454h-7.858c.536,1,1.684,1.505,3.419,1.505s1.25-.051,1.862-.179a4.366,4.366,0,0,0,1.454-.51v4.72a14.335,14.335,0,0,1-1.964.434,12.5,12.5,0,0,1-1.965.153,11.665,11.665,0,0,1-3.648-.536,7.84,7.84,0,0,1-2.755-1.556,7.008,7.008,0,0,1-1.734-2.449,8.368,8.368,0,0,1-.612-3.266,8.925,8.925,0,0,1,.51-3.112,6.7,6.7,0,0,1,1.428-2.373,6.1,6.1,0,0,1,2.271-1.505,8.013,8.013,0,0,1,3.01-.536Zm2.041,6.352a2.482,2.482,0,0,0-.537-1.429,1.6,1.6,0,0,0-1.224-.536,1.754,1.754,0,0,0-1.275.536,2.355,2.355,0,0,0-.587,1.429Z" transform="translate(-13.732 -1.921)"/>
    <path id="Caminho_60605" data-name="Caminho 60605" d="M11.455.966a11.48,11.48,0,0,0,0,22.961v4.745l8.113-8.113A11.473,11.473,0,0,0,11.48.966ZM16.2,17.191l-1.964,1.964-2.857,2.857V19.156a6.71,6.71,0,1,1,6.786-6.71C18.165,16.145,17.476,15.916,16.2,17.191Z" transform="translate(0 -0.966)"/>
    <path id="Caminho_60606" data-name="Caminho 60606" d="M79.362,9.493h5.587V4.467" transform="translate(-7.673 -1.304)"/>
  </g>
</svg>
