<svg xmlns="http://www.w3.org/2000/svg" width="74.201" height="34.867" viewBox="0 0 74.201 34.867">
  <g id="Grupo_2207" data-name="Grupo 2207" opacity="0.4">
    <path id="Caminho_20" data-name="Caminho 20" d="M66.525,3.847,67.366,0H44.324L43.5,3.847Z" transform="translate(-15.959)"/>
    <path id="Caminho_21" data-name="Caminho 21" d="M64.558,12.928l.84-3.866h-23l-.86,3.866Z" transform="translate(-15.238 -3.319)"/>
    <path id="Caminho_22" data-name="Caminho 22" d="M36.8,30.063h5.433c.508,0,.919-.038,1.329-.057a6.14,6.14,0,0,0,2.111-.436,4.322,4.322,0,0,0,1.759-1.44,3.612,3.612,0,0,0,.664-2.047c0-1.175-.8-1.933-2.443-2.217l.039-.038c1.837-.436,2.912-1.326,3.244-2.691A3.506,3.506,0,0,0,49,20.531a2,2,0,0,0-.567-1.459,3.5,3.5,0,0,0-1.778-.834,13.771,13.771,0,0,0-2.287-.114H39.419L37.094,28.661ZM42.273,20.3h1.876a1.523,1.523,0,0,1,1.036.284.96.96,0,0,1,.235,1.023,1.579,1.579,0,0,1-.9,1.175,3.757,3.757,0,0,1-.958.152h-1.9ZM41.237,25.06h1.778a5.288,5.288,0,0,1,.567.019c.723.114,1.036.436,1.036,1a1.442,1.442,0,0,1-.039.4,1.642,1.642,0,0,1-1.016,1.194,2.958,2.958,0,0,1-1.075.171H40.612Z" transform="translate(-13.483 -6.651)"/>
    <path id="Caminho_23" data-name="Caminho 23" d="M7.368,17.648A7.082,7.082,0,0,0,3.147,18.8a4.133,4.133,0,0,0-1.778,2.577,3.857,3.857,0,0,0-.078.777q0,1.848,2.4,2.5l2.853.777c.586.152.86.436.86.834a2,2,0,0,1-.02.322c-.215.891-.919,1.345-2.15,1.345-1.173,0-1.759-.436-1.759-1.289a1.549,1.549,0,0,1,.1-.55H.117A4.141,4.141,0,0,0,0,27.1a2.819,2.819,0,0,0,.469,1.63c.684.947,2.091,1.4,4.2,1.4a8.461,8.461,0,0,0,4.085-.929,4.27,4.27,0,0,0,2.208-2.918,2.856,2.856,0,0,0,.117-.853,2.013,2.013,0,0,0-.958-1.8,7.86,7.86,0,0,0-1.993-.777L5.961,22.29c-.684-.171-1.016-.493-1.016-.947a.544.544,0,0,1,.039-.246,1.417,1.417,0,0,1,.625-.929,2.305,2.305,0,0,1,1.27-.341c.9,0,1.329.379,1.329,1.08a1.55,1.55,0,0,1-.1.55h3.479a4.472,4.472,0,0,0,.117-1.061C11.726,18.576,10.26,17.648,7.368,17.648Z" transform="translate(0 -6.477)"/>
    <path id="Caminho_24" data-name="Caminho 24" d="M28.97,27.754H22.951l.528-2.52h5.57l.508-2.293H24.025l.528-2.482h5.9l.176-.853.332-1.421H21.68l-2.619,11.9h9.4Z" transform="translate(-6.984 -6.672)"/>
    <path id="Caminho_25" data-name="Caminho 25" d="M81.753,18.155l-7,11.086-.508.834h3.42l1.368-2.407h4.925l.332,2.407h3.87L85.916,18.155Zm-1.427,7.315,1.7-2.994,1.134-2.009h.02l.508,5Z" transform="translate(-27.208 -6.662)"/>
    <path id="Caminho_26" data-name="Caminho 26" d="M109.715,20.458l.509-2.274H100.94l-2.619,11.9h9.44l.488-2.331H102.21l.567-2.52h5.55l.528-2.293h-5.57l.567-2.482Z" transform="translate(-36.022 -6.672)"/>
    <path id="Caminho_27" data-name="Caminho 27" d="M67.037,23.506a3.226,3.226,0,0,0,1.622-2.217,5.243,5.243,0,0,0,.117-.929,2.255,2.255,0,0,0-.469-1.4l-.059-.057a2.46,2.46,0,0,0-1.6-.72,15.483,15.483,0,0,0-1.935-.057H59L56.385,30.044h3.42L60.841,25.4h1.427a2.151,2.151,0,0,1,1.016.171.871.871,0,0,0,.1.019,1,1,0,0,1,.293.777c0,.17-.039.512-.1.985a16.917,16.917,0,0,0-.176,2.71h3.713a23.34,23.34,0,0,1,.059-2.956c.039-.493.059-.853.059-1.061a1.958,1.958,0,0,0-.41-1.345A2.579,2.579,0,0,0,65,24.207l.039-.076A6.976,6.976,0,0,0,67.037,23.506Zm-3.01-.36a2.36,2.36,0,0,1-.743.076,3.581,3.581,0,0,1-.684.038H61.31l.625-2.937h1.349a4.17,4.17,0,0,1,1.309.152.879.879,0,0,1,.684.91.985.985,0,0,1-.059.4A1.635,1.635,0,0,1,64.027,23.146Z" transform="translate(-20.659 -6.651)"/>
    <path id="Caminho_28" data-name="Caminho 28" d="M33.687,48.948,32.866,52.8H55.908l.821-3.847Z" transform="translate(-12.057 -17.928)"/>
    <path id="Caminho_29" data-name="Caminho 29" d="M35.654,39.916l-.821,3.828h23l.86-3.828Z" transform="translate(-12.779 -14.619)"/>
  </g>
</svg>
