<svg xmlns="http://www.w3.org/2000/svg" width="134.79" height="24.029" viewBox="0 0 134.79 24.029">
  <g id="Grupo_1" data-name="Grupo 1" transform="translate(0.5 0.586)" opacity="0.4">
    <g id="Grupo_29450" data-name="Grupo 29450" transform="translate(0 0)">
      <path id="Caminho_39695" data-name="Caminho 39695" d="M113.272,12.5h1.7l2.335,11.381c.195.924.365,2.261.511,3.4.17-1.143.413-2.48.632-3.4l1.8-7.563c.389-1.58,1.119-2.6,2.578-2.6s2.189,1.022,2.578,2.6l1.775,7.563c.219.924.462,2.286.632,3.429.146-1.143.34-2.48.535-3.429L130.684,12.5h1.7L128.86,29.475h-1.994L123.85,16.611c-.219-.948-.413-1.313-1.021-1.313s-.827.365-1.045,1.313l-2.991,12.864H116.8Z" transform="translate(-81.97 -9.046)"/>
      <path id="Caminho_39696" data-name="Caminho 39696" d="M193.526,13.459a1.029,1.029,0,0,1,1.07-1.045,1.056,1.056,0,0,1,1.119,1.045,1.116,1.116,0,0,1-1.119,1.119,1.09,1.09,0,0,1-1.07-1.119m.243,3.5h1.653V28.926a.447.447,0,0,1-.486.486h-1.167Z" transform="translate(-140.045 -8.983)"/>
      <path id="Caminho_39689" data-name="Caminho 39689" d="M212.786,38.668a10.109,10.109,0,0,0,3.259.657c1.775,0,2.529-.827,2.529-2.091,0-2.675-5.885-2.091-5.885-6.079,0-2.14,1.7-3.429,4.085-3.429a8.538,8.538,0,0,1,2.991.535l-.389,1.386a8.56,8.56,0,0,0-2.578-.438c-1.556,0-2.383.73-2.383,1.945,0,2.529,5.885,2.14,5.885,6.079,0,2.189-1.653,3.575-4.255,3.575a11.468,11.468,0,0,1-3.6-.657Z" transform="translate(-153.737 -20.063)"/>
      <path id="Caminho_39690" data-name="Caminho 39690" d="M251.164,32.71a4.768,4.768,0,0,1,4.864-4.985,4.822,4.822,0,0,1,4.863,4.985v1.362a.483.483,0,0,1-.462.486h-7.611v1.289a3.208,3.208,0,0,0,3.356,3.478,13.663,13.663,0,0,0,3.793-.657l.365,1.41a13.727,13.727,0,0,1-4.158.729,4.782,4.782,0,0,1-5.01-4.961Zm8.074.535v-.608a3.217,3.217,0,1,0-6.42,0v.608Z" transform="translate(-181.755 -20.063)"/>
      <path id="Caminho_39691" data-name="Caminho 39691" d="M302.233,12.5h3.185l3.7,12.694c.122.389.243.632.486.632s.365-.243.486-.632L313.76,12.5h3.185l2.14,16.974h-2.894l-1.07-9.022c-.1-.8-.171-1.921-.219-2.967-.219,1.094-.462,2.213-.705,3.04l-1.411,5.009c-.462,1.605-1.313,2.845-3.186,2.845-1.848,0-2.748-1.24-3.185-2.845L304.981,20.4c-.243-.827-.535-1.994-.729-3.064-.073,1.119-.122,2.31-.219,3.161l-1.046,8.973h-2.894Z" transform="translate(-217.163 -9.046)"/>
      <path id="Caminho_39692" data-name="Caminho 39692" d="M378.148,11.441a1.643,1.643,0,0,1,3.283,0,1.642,1.642,0,0,1-3.283,0m.219,3.526h2.821V26.981a.537.537,0,0,1-.584.584h-2.237Z" transform="translate(-273.648 -7.135)"/>
      <path id="Caminho_39693" data-name="Caminho 39693" d="M401.379,27.512h2.383l.146,1.168a5.323,5.323,0,0,1,3.5-1.484c2.651,0,4.085,1.605,4.085,4.28v8.049a.537.537,0,0,1-.583.584h-2.237V31.865c0-1.556-.486-2.262-1.824-2.262a3.953,3.953,0,0,0-2.651,1.24v9.265h-2.821Z" transform="translate(-290.459 -19.68)"/>
      <path id="Caminho_39694" data-name="Caminho 39694" d="M448.194,19.958c0-3.283,1.751-5.18,4.6-5.18a4.526,4.526,0,0,1,3.015,1.216V10.037h2.821V27.692h-2.383l-.146-1.119a4.92,4.92,0,0,1-3.307,1.435c-2.845,0-4.6-1.921-4.6-5.18Zm2.87,2.48c0,2.164.608,3.161,2.164,3.161a4.123,4.123,0,0,0,2.577-1.216V18.451a3.957,3.957,0,0,0-2.577-1.264c-1.556,0-2.164,1-2.164,3.161Z" transform="translate(-324.337 -7.263)"/>
      <path id="Caminho_39697" data-name="Caminho 39697" d="M379.827,12.815a1.608,1.608,0,0,1-1.2-.487,1.768,1.768,0,0,1,0-2.414,1.71,1.71,0,0,1,2.414,0,1.8,1.8,0,0,1,0,2.414,1.6,1.6,0,0,1-1.213.487" transform="translate(-273.649 -6.813)"/>
      <path id="União_723" data-name="União 723" d="M3973.779-718.492a6.28,6.28,0,0,1-1.885-4.9,5.4,5.4,0,0,1-2.3-4.345.449.449,0,0,1,0-.051,5.193,5.193,0,0,1,2.292-4.439,6.3,6.3,0,0,1,1.891-4.77c2.682-2.84,7.365-2.156,7.563-2.122a.582.582,0,0,1,.461.631.015.015,0,0,1,0,.006,10.084,10.084,0,0,1-1.144,4.329c-.968,1.934-3.971,5.136-5.206,6.411,1.221,1.261,4.236,4.472,5.207,6.411a9.777,9.777,0,0,1,1.15,4.418.182.182,0,0,1,0,.023.592.592,0,0,1-.116.317,1.122,1.122,0,0,1-.093.093.568.568,0,0,1-.258.114,10,10,0,0,1-1.47.1A8.378,8.378,0,0,1,3973.779-718.492Zm.8-.759c1.687,1.787,4.444,1.915,5.794,1.856-1.342-2.276-4.114-3.8-6.955-5.106q-.234-.108-.454-.224A5.391,5.391,0,0,0,3974.582-719.251Zm-1.507-4.681a8.13,8.13,0,0,0,.807.426,19.934,19.934,0,0,1,6.384,4.127,10.356,10.356,0,0,0-.6-1.462c-.883-1.761-3.759-4.835-4.979-6.1A6.946,6.946,0,0,0,3973.075-723.932Zm-2.375-3.814c0,.005,0,.009,0,.014a4.143,4.143,0,0,0,1.431,3.1,8.442,8.442,0,0,1,1.794-3.116,8.382,8.382,0,0,1-1.823-3.232A4.019,4.019,0,0,0,3970.7-727.746Zm3.182-4.364a8.413,8.413,0,0,0-.827.437,6.888,6.888,0,0,0,1.638,3.119c1.233-1.278,4.1-4.342,4.977-6.1a10.268,10.268,0,0,0,.61-1.5A20.309,20.309,0,0,1,3973.882-732.11Zm.7-4.131a5.44,5.44,0,0,0-1.611,3.346q.218-.113.449-.22c2.915-1.34,5.63-2.74,6.95-4.98-.145-.006-.3-.01-.479-.01A7.359,7.359,0,0,0,3974.582-736.241Zm9.871,19.87a.581.581,0,0,1-.462-.631.019.019,0,0,1,0-.007,10.083,10.083,0,0,1,1.144-4.328c.967-1.935,3.972-5.136,5.206-6.411-1.222-1.261-4.236-4.472-5.207-6.411a9.783,9.783,0,0,1-1.15-4.418.182.182,0,0,1,0-.023.6.6,0,0,1,.116-.317.947.947,0,0,1,.093-.093.567.567,0,0,1,.258-.114,9.977,9.977,0,0,1,1.47-.1,8.375,8.375,0,0,1,6.092,2.217,6.276,6.276,0,0,1,1.884,4.9,5.4,5.4,0,0,1,2.3,4.345.448.448,0,0,1,0,.051,5.188,5.188,0,0,1-2.293,4.438,6.3,6.3,0,0,1-1.89,4.77,8.383,8.383,0,0,1-6.095,2.219A9.993,9.993,0,0,1,3984.453-716.371Zm7.92-6.007c-2.915,1.34-5.63,2.74-6.95,4.98,1.353.056,4.11-.076,5.789-1.854a5.437,5.437,0,0,0,1.611-3.346Q3992.6-722.485,3992.373-722.378Zm-6.248,1.536a10.176,10.176,0,0,0-.61,1.5,20.276,20.276,0,0,1,6.4-4.045,8.418,8.418,0,0,0,.828-.437,6.884,6.884,0,0,0-1.638-3.12C3989.869-725.662,3987-722.6,3986.125-720.842Zm5.745-6.905a8.377,8.377,0,0,1,1.823,3.233,4.02,4.02,0,0,0,1.4-3.233c0-.005,0-.009,0-.014a4.142,4.142,0,0,0-1.431-3.1A8.43,8.43,0,0,1,3991.869-727.747Zm-5.745-6.905c.882,1.76,3.758,4.835,4.977,6.1a6.943,6.943,0,0,0,1.617-3.008,8.129,8.129,0,0,0-.807-.427,19.919,19.919,0,0,1-6.384-4.127A10.217,10.217,0,0,0,3986.125-734.652Zm-.707-3.446c1.342,2.275,4.114,3.8,6.955,5.106q.235.108.454.224a5.386,5.386,0,0,0-1.616-3.473,7.335,7.335,0,0,0-5.3-1.867C3985.732-738.109,3985.566-738.1,3985.418-738.1Z" transform="translate(-3969.592 739.218)" stroke="rgba(0,0,0,0)" stroke-width="1"/>
    </g>
  </g>
</svg>
